<svg xmlns="http://www.w3.org/2000/svg" width="37" height="37" viewBox="0 0 37 37">
    <g fill="#467c45" fill-rule="evenodd">
        <path d="M17.619 3.41c.42-1.144.77-2.289 1.26-3.41.746 1.612 1.236 3.34 1.982 4.929 1.843.724 3.848 1.027 5.715 1.728a447.075 447.075 0 0 1-12.176 5.84c1.003-3.06 2.146-6.05 3.219-9.087M10.73 6.855c1.846-.986 3.644-2.072 5.49-3.058-1.477 4.538-3.151 9-4.653 13.538-1.65-3.107-3.078-6.337-4.63-9.494C6.445 6.781 5.88 5.77 5.46 4.685c1.797.616 3.472 1.627 5.27 2.17M18.864 11.637c4.088-2.01 8.2-4.022 12.311-5.985-.669 1.724-1.434 3.376-2.175 5.076.956 1.795 2.127 3.495 3.012 5.339a530.933 530.933 0 0 1-13.148-4.43M6.504 9.469c1.233 2.308 2.283 4.731 3.423 7.085.777 1.623 1.598 3.223 2.306 4.891A490.15 490.15 0 0 1 0 17.035c1.598-.732 3.287-1.235 4.907-1.92.525-1.898 1.073-3.772 1.597-5.646M22.733 13.959c3.413 1.106 6.8 2.362 10.214 3.518 1.078.402 2.233.704 3.287 1.231-1.782.704-3.589 1.384-5.346 2.087-.652 2.035-1.103 4.146-1.781 6.182-1.38-2.563-2.585-5.227-3.89-7.84-.828-1.71-1.731-3.419-2.484-5.178M22.591 22.775c.453-1.291.835-2.604 1.36-3.87.62 1.074 1.12 2.22 1.693 3.32 1.407 2.986 2.933 5.899 4.317 8.885-1.694-.692-3.363-1.457-5.08-2.174-1.789.956-3.483 2.102-5.319 3.01.93-3.081 2.051-6.114 3.029-9.171M3.873 19.885c3.866 1.203 7.637 2.646 11.455 3.92.577.193 1.153.41 1.681.674-4.13 1.9-8.189 3.992-12.367 5.82.672-1.683 1.512-3.295 2.16-5.002-.816-1.877-2.04-3.56-2.929-5.412M12.04 27.868c3.126-1.517 6.228-3.106 9.378-4.551-.842 2.817-1.924 5.586-2.862 8.403-.552 1.493-.985 3.035-1.61 4.503-.77-1.638-1.323-3.371-2.044-5.032-1.948-.723-3.992-1.132-5.963-1.686.938-.698 2.091-1.084 3.102-1.637"/>
    </g>
</svg>
