<svg xmlns="http://www.w3.org/2000/svg" width="145" height="22" viewBox="0 0 145 22">
    <g fill="#FFF" fill-rule="evenodd">
        <path d="M76.825 17.047c-2.49 0-4.634-1.946-4.634-6.133s2.145-6.133 4.634-6.133c.973 0 1.797.197 2.522.609l-.346.826c-.577-.347-1.285-.545-2.11-.545-1.979 0-3.661 1.616-3.661 5.243 0 3.627 1.682 5.226 3.661 5.226.825 0 1.533-.18 2.11-.528l.346.824c-.725.413-1.55.61-2.522.61M81.211 4.378h.954v12.685h-.954zM95.634 17.063c-2.052 0-3.215-.954-3.215-2.974V8.354h.952v5.751c0 1.455.76 2.15 2.263 2.15.905 0 1.697-.178 2.085-.356V8.354h.954v8.111c-.63.323-1.794.598-3.039.598M105.691 4.378v4.054a8.585 8.585 0 0 0-2.085-.256c-2.052 0-2.896.966-3.217 2.973 0 0-.09.68-.09 1.558 0 .879.09 1.382.09 1.382.337 2.032 1.165 2.974 3.217 2.974 1.244 0 2.41-.275 3.04-.775V4.378h-.955zm0 11.521c-.387.178-1.18.357-2.085.357-1.503 0-2.059-.714-2.262-2.15 0 0-.092-.527-.092-1.4 0-.87.092-1.573.092-1.573.284-1.429.76-2.149 2.262-2.149.906 0 1.698.178 2.085.356v6.56zM108.472 17.063V4.378h1.826v11.15h4.023v1.535h-5.85M116.873 6.77c-.581 0-1.05-.454-1.05-1.003 0-.548.469-1.001 1.05-1.001.582 0 1.05.453 1.05 1.001 0 .55-.468 1.002-1.05 1.002zm-.888 1.584h1.778v8.709h-1.778V8.354zM124.772 17.063v-5.64c0-1.017-.613-1.647-1.824-1.647-.647 0-1.246.114-1.602.26v7.027h-1.76V8.968c.872-.357 1.987-.614 3.345-.614 2.441 0 3.62 1.067 3.62 2.908v5.8h-1.779M131.902 17.063c-2.297 0-3.525-.954-3.525-3.136V8.354h1.761v5.607c0 1.115.6 1.647 1.764 1.647.677 0 1.26-.113 1.551-.242V8.354h1.761v8.095c-.71.356-1.988.614-3.312.614M142.544 17.063l-2.037-3.313h-.031l-2.037 3.313h-2.02l2.99-4.525-2.747-4.184h1.988l1.826 3.036h.031l1.827-3.036h1.987l-2.748 4.184 2.991 4.525h-2.02M90.502 11.15c-.32-2.008-1.165-2.974-3.216-2.974-2.053 0-2.896.966-3.217 2.973 0 0-.09.68-.09 1.558 0 .879.09 1.382.09 1.382.337 2.032 1.164 2.974 3.217 2.974 2.051 0 2.88-.942 3.216-2.974 0 0 .09-.503.09-1.382 0-.878-.09-1.558-.09-1.558zm-.954 2.955c-.204 1.437-.76 2.15-2.262 2.15-1.505 0-2.06-.713-2.263-2.15 0 0-.09-.526-.09-1.398 0-.871.09-1.574.09-1.574.284-1.429.758-2.149 2.263-2.149 1.503 0 1.977.72 2.262 2.15 0 0 .09.702.09 1.573 0 .872-.09 1.398-.09 1.398zM59.36 0c.12.032.242.066.365.096 2.546.642 4.452 2.04 5.329 4.6.377 1.102.125 2.183-.351 3.203-.238.507-.446 1.04-.824 1.474-.107.125-.178.286-.384.363.263-2.328.191-4.612-1.443-6.444C60.495 1.546 58.486.552 56 .424c.464-.328.941-.23 1.323-.424h2.036M68.697 11.72c-.176.079-.154.253-.189.399-.526 2.254-1.81 3.91-3.89 4.946-1.4.697-2.774.47-4.117-.142-.457-.209-.916-.44-1.322-.752-.123-.094-.26-.168-.358-.36.23-.047.428.005.63.019 1.932.133 3.864.038 5.483-1.126 1.658-1.193 2.627-2.915 3.068-4.916.09-.408.144-.824.22-1.266.331.344.125.866.475 1.161v2.036M47.159 9.683c.248-1.171.66-2.272 1.393-3.236.957-1.26 2.234-2.053 3.739-2.482.554-.158 1.134-.03 1.677.085 1.13.237 2.118.804 3.072 1.52-5.49-.563-8.656 1.849-9.515 7.31-.25-.363-.19-.802-.366-1.16V9.682"/>
        <path d="M52.15 19.436c-1.207-.57-2.242-1.335-2.919-2.491-1.27-2.175-1.453-4.42-.346-6.716.447-.929 1.287-1.46 2.174-1.866a8.277 8.277 0 0 1 2.142-.655c.104-.016.24-.09.296.057.044.113-.078.167-.154.223-1.489 1.08-2.412 2.59-3.159 4.222-.295.645-.275 1.351-.2 2.043.205 1.897.875 3.605 2.113 5.076.026.029.036.072.053.107M48.967 5.006c.235-.631.601-1.156 1.052-1.587 1.095-1.048 2.34-1.863 3.864-2.157 1.51-.292 2.981-.176 4.379.496 1.197.574 1.86 1.61 2.279 2.815.204.59.38 1.2.38 1.897-3.51-4.44-7.522-4.543-11.954-1.464M66.767 16.404a5.803 5.803 0 0 1-2.248 2.648c-2.25 1.428-4.615 1.692-7.05.523-1.169-.561-1.861-1.57-2.235-2.797-.153-.498-.343-.989-.386-1.517-.007-.08-.059-.18.037-.227.098-.047.156.045.202.112.854 1.231 2.096 1.994 3.34 2.747.986.596 2.067.676 3.193.584 1.932-.16 3.646-.827 5.147-2.073M62 13.702c.273-.209.528-.397.778-.593.801-.628 1.381-1.436 1.92-2.29 1.755-2.789.941-5.392-.547-7.948-.173-.299-.41-.56-.589-.871.767.31 1.424.784 1.961 1.398 1.842 2.102 2.388 4.49 1.505 7.168-.513 1.552-1.68 2.378-3.175 2.833-.498.152-.987.343-1.515.374-.097.006-.194.046-.338-.071"/>
        <path d="M60.076 20.894c-.93.448-1.903.47-2.875.402-2.687-.188-5.16-2.12-5.986-4.684-.353-1.095-.072-2.149.347-3.168.214-.523.51-1.007.83-1.474.068-.097.119-.282.26-.232.167.057.092.244.076.375a8.807 8.807 0 0 0 .106 2.863c.28 1.346.683 2.623 1.782 3.563 1.522 1.303 3.256 2.114 5.259 2.326.067.007.134.02.201.03M53.077 6.616c.003-.11.066-.123.116-.138 1.109-.339 2.232-.443 3.376-.203.116.024.295.018.28.19-.017.196-.21.172-.337.148-1.143-.226-2.288-.204-3.435.003M62.105 5.925c.076.28.152.56.23.84.106.378.114.77.217 1.155.147.545-.174 1.063-.247 1.601a.126.126 0 0 1-.155.11c-.146-.037-.147-.164-.122-.273.117-.51.147-1.027.145-1.55a20.56 20.56 0 0 0-.068-1.883M51.603 10.992c.142-.386.37-.717.628-1.026.452-.542.93-1.06 1.525-1.452.087-.057.191-.17.295-.043.084.103.045.236-.055.3-.93.59-1.623 1.422-2.33 2.24-.003.005-.023-.006-.063-.02"/>
        <path d="M53.712 15.456c-.408-1.08-.554-2.19-.308-3.334.026-.117.043-.288.215-.262.171.027.143.19.119.31-.219 1.093-.176 2.183-.026 3.286M58.233 16.982a8.24 8.24 0 0 1-2.508-2.095c-.082-.102-.213-.256-.056-.365.15-.104.25.069.335.173a12.727 12.727 0 0 0 2.097 2.057c.053.04.128.066.132.23M57.6 4.535c.527.123.95.42 1.325.773.438.413.9.811 1.211 1.34.048.082.138.177.026.26-.094.07-.191.012-.26-.064-.076-.083-.142-.176-.21-.265-.553-.732-1.185-1.384-1.943-1.908-.055-.037-.099-.09-.148-.136M62.5 14.897c-1.039.362-2.096.478-3.18.236-.106-.025-.243-.047-.238-.195.004-.134.12-.15.22-.129 1.061.224 2.129.146 3.199.088M64.117 10.565c-.48 1.023-1.23 1.793-2.184 2.373-.072.045-.156.085-.22-.01-.044-.066-.018-.14.026-.196a.595.595 0 0 1 .15-.145 7.937 7.937 0 0 0 2.228-2.022M6.445 7.632l-.463 2.245-1.485 6.491a1.028 1.028 0 0 1-.176.424c-.08.102-.198.153-.358.153H3.46a.713.713 0 0 1-.4-.099c-.098-.066-.17-.2-.217-.403L.895 6.48c-.037-.112-.005-.167.098-.167h.827c.131 0 .2.05.21.152l1.191 6.581.434 2.502h.071l.547-2.517 1.373-6.158a.909.909 0 0 1 .168-.393c.084-.112.234-.167.448-.167h.477c.177 0 .306.05.386.152.078.1.136.237.174.408l1.36 6.113.532 2.562h.07l.463-2.577 1.205-6.506c.008-.102.074-.152.196-.152h.813c.103 0 .135.055.098.167l-1.976 9.963c-.047.203-.12.337-.217.403a.718.718 0 0 1-.4.099H8.94c-.159 0-.276-.049-.35-.145a1.158 1.158 0 0 1-.183-.432L6.935 9.847l-.448-2.215h-.042M16.085 8.815c.533 0 .99.083 1.374.25.383.167.698.402.946.705.248.304.432.663.553 1.077.122.415.183.87.183 1.365 0 .425-.091.705-.274.842a1.076 1.076 0 0 1-.665.205h-4.289c0 .522.062.968.183 1.335.122.367.289.664.5.89.21.226.459.39.745.49.286.101.593.15.92.15.31 0 .612-.039.908-.12.294-.08.546-.183.752-.303.112-.061.192-.04.24.06l.25.534c.057.123.033.21-.069.262a2.99 2.99 0 0 1-1.051.439 5.451 5.451 0 0 1-1.093.115c-1.028 0-1.835-.326-2.425-.978-.588-.653-.882-1.696-.882-3.132 0-.678.079-1.277.238-1.797.159-.521.38-.958.665-1.312a2.84 2.84 0 0 1 1.009-.804 2.968 2.968 0 0 1 1.282-.273zm2.075 3.534c0-.344-.033-.673-.1-.987a2.39 2.39 0 0 0-.33-.826 1.671 1.671 0 0 0-.64-.569c-.27-.141-.609-.212-1.011-.212-.328 0-.621.069-.88.205-.258.137-.475.32-.652.554a2.634 2.634 0 0 0-.416.818 4.073 4.073 0 0 0-.175 1.017h4.204zM29.945 16.246c0 .182-.066.304-.196.364-.42.193-.869.324-1.345.395-.477.07-.934.106-1.373.106-.599 0-1.088-.071-1.472-.213-.383-.142-.686-.327-.91-.555a1.878 1.878 0 0 1-.471-.791 3.298 3.298 0 0 1-.132-.936c0-.375.06-.727.182-1.057.121-.329.305-.616.553-.86.248-.242.558-.432.932-.57.374-.137.818-.205 1.332-.205h1.864v-.404c0-.25-.024-.48-.07-.695a1.205 1.205 0 0 0-.267-.546 1.303 1.303 0 0 0-.546-.351c-.234-.085-.538-.128-.912-.128-.308 0-.647.034-1.015.099-.37.066-.684.145-.946.235a.382.382 0 0 1-.154.023c-.038-.005-.066-.043-.085-.113l-.14-.552c-.027-.112.01-.19.113-.231.168-.07.35-.136.546-.191.196-.057.4-.106.61-.147.21-.042.422-.07.637-.085.214-.015.416-.023.603-.023.906 0 1.576.218 2.01.652.436.435.652 1.072.652 1.91v4.87zm-1.05-3.337h-1.808c-.168 0-.37.017-.604.047a1.84 1.84 0 0 0-.664.22c-.211.118-.388.29-.533.518-.146.23-.218.541-.218.937 0 .305.054.56.161.762.108.204.253.366.436.488.182.122.389.206.623.252a3.837 3.837 0 0 0 1.072.052 9.19 9.19 0 0 0 .483-.045 4.308 4.308 0 0 0 1.051-.26v-2.97zM36.14 10.665c-.047.051-.084.073-.112.069a.238.238 0 0 1-.099-.054 3.217 3.217 0 0 0-.904-.636 2.623 2.623 0 0 0-1.142-.244c-.13 0-.277.006-.44.015-.165.01-.34.042-.528.092v6.84c0 .08-.012.134-.041.16-.03.025-.081.038-.157.038h-.639c-.067 0-.113-.013-.142-.039-.03-.025-.043-.078-.043-.16v-6.84c0-.313.05-.546.15-.697.099-.15.3-.253.603-.304.423-.06.813-.09 1.167-.09 1.093 0 2.009.344 2.748 1.032.064.07.069.141.012.212l-.434.606M40.4 8.815c.532 0 .99.083 1.373.25.382.167.699.402.946.705.247.304.432.663.554 1.077.12.415.182.87.182 1.365 0 .425-.092.705-.274.842a1.077 1.077 0 0 1-.665.205h-4.288c0 .522.06.968.183 1.335.121.367.288.664.498.89.212.226.46.39.745.49.286.101.593.15.92.15.31 0 .613-.039.909-.12.295-.08.545-.183.751-.303.113-.061.192-.04.24.06l.251.534c.057.123.034.21-.07.262a2.99 2.99 0 0 1-1.05.439 5.449 5.449 0 0 1-1.093.115c-1.029 0-1.836-.326-2.424-.978-.588-.653-.884-1.696-.884-3.132 0-.678.08-1.277.239-1.797.158-.521.38-.958.666-1.312a2.82 2.82 0 0 1 1.008-.804 2.968 2.968 0 0 1 1.283-.273zm2.074 3.534c0-.344-.034-.673-.099-.987a2.415 2.415 0 0 0-.33-.826 1.668 1.668 0 0 0-.64-.569c-.272-.141-.609-.212-1.013-.212-.328 0-.62.069-.878.205-.258.137-.476.32-.654.554a2.632 2.632 0 0 0-.414.818 4.02 4.02 0 0 0-.176 1.017h4.204z"/>
    </g>
</svg>
