<svg xmlns="http://www.w3.org/2000/svg" width="26" height="26" viewBox="0 0 26 26">
    <g fill="#000000" fill-rule="evenodd">
        <path d="M13.746.468c.142.038.284.077.427.112 2.97.748 5.192 2.38 6.215 5.364.44 1.285.146 2.547-.41 3.736-.276.592-.52 1.213-.96 1.72-.125.145-.208.333-.448.422.307-2.714.223-5.379-1.683-7.515C15.071 2.271 12.728 1.111 9.83.962 10.37.58 10.926.693 11.372.468h2.374M25.12 14.017c-.206.093-.18.296-.22.466-.614 2.629-2.111 4.561-4.538 5.769-1.633.813-3.234.548-4.8-.166-.534-.243-1.069-.513-1.543-.877-.143-.11-.304-.196-.417-.42.267-.055.5.006.734.022 2.254.155 4.507.044 6.395-1.313 1.934-1.39 3.064-3.4 3.578-5.734.104-.475.168-.96.257-1.476.386.401.146 1.01.554 1.355v2.374M0 11.643c.289-1.367.771-2.651 1.625-3.775 1.116-1.47 2.606-2.394 4.36-2.895.647-.184 1.324-.034 1.957.1 1.318.275 2.47.937 3.583 1.772C5.122 6.188 1.429 9 .427 15.37c-.292-.423-.22-.935-.427-1.353v-2.374"/>
        <path d="M5.822 23.018c-1.409-.666-2.616-1.558-3.405-2.907-1.481-2.536-1.695-5.154-.403-7.832.52-1.083 1.5-1.702 2.534-2.176a9.654 9.654 0 0 1 2.499-.764c.121-.02.28-.104.345.066.052.132-.09.194-.18.26-1.736 1.26-2.812 3.022-3.683 4.924-.345.753-.322 1.576-.234 2.383.24 2.213 1.021 4.205 2.465 5.92.03.034.042.084.062.126M2.11 6.187c.274-.736.7-1.348 1.226-1.85C4.613 3.115 6.065 2.164 7.842 1.82c1.762-.34 3.477-.205 5.107.578 1.397.67 2.17 1.878 2.658 3.283.24.689.444 1.399.444 2.213C11.958 2.716 7.278 2.596 2.11 6.187M22.868 19.48c-.567 1.307-1.443 2.342-2.62 3.09-2.625 1.664-5.384 1.972-8.224.61-1.362-.655-2.17-1.833-2.606-3.263-.178-.58-.4-1.153-.45-1.77-.008-.092-.069-.209.044-.264.113-.055.18.053.235.131.996 1.436 2.444 2.326 3.896 3.203 1.149.696 2.41.789 3.723.681 2.254-.185 4.252-.964 6.002-2.417M17.498 16.26c.318-.243.616-.463.907-.692.935-.732 1.611-1.674 2.24-2.67 2.047-3.253 1.097-6.288-.638-9.27-.203-.349-.48-.653-.687-1.016a6.016 6.016 0 0 1 2.287 1.63c2.147 2.453 2.785 5.237 1.754 8.36-.598 1.81-1.958 2.775-3.703 3.305-.58.177-1.15.4-1.766.437-.113.006-.227.052-.394-.084"/>
        <path d="M15.066 24.718c-1.086.522-2.22.547-3.354.468-3.134-.218-6.019-2.472-6.981-5.462-.412-1.278-.084-2.507.405-3.695.25-.61.595-1.175.968-1.72.078-.113.138-.329.303-.27.194.067.108.284.089.437a10.271 10.271 0 0 0 .123 3.34c.328 1.569.796 3.058 2.078 4.155 1.776 1.52 3.797 2.466 6.134 2.713.078.008.156.023.235.034M6.902 8.065c.004-.128.077-.143.135-.16 1.294-.396 2.604-.518 3.938-.238.135.028.344.022.327.221-.02.23-.246.202-.393.173-1.333-.263-2.669-.237-4.007.004M17.432 7.26c.089.326.176.653.268.98.123.44.133.898.253 1.346.171.636-.203 1.24-.288 1.868a.147.147 0 0 1-.18.127c-.17-.042-.172-.19-.143-.318.137-.595.172-1.198.17-1.807-.002-.73-.012-1.46-.08-2.197M5.183 13.169c.166-.45.432-.836.733-1.197.527-.632 1.083-1.237 1.779-1.693.101-.066.223-.199.343-.05.098.12.053.275-.064.35-1.084.687-1.893 1.658-2.717 2.613-.004.005-.027-.008-.074-.023"/>
        <path d="M7.644 18.375c-.477-1.259-.647-2.554-.36-3.888.03-.137.05-.337.25-.305.2.03.168.22.14.361-.256 1.274-.206 2.546-.03 3.832M12.916 20.155a9.61 9.61 0 0 1-2.925-2.443c-.096-.12-.249-.299-.065-.426.175-.121.29.08.39.201a14.843 14.843 0 0 0 2.446 2.4c.062.047.15.077.154.268M12.178 5.639c.615.143 1.108.488 1.545.9.51.482 1.05.947 1.413 1.564.055.095.16.205.03.303-.11.08-.223.013-.304-.075-.088-.097-.165-.205-.243-.309-.646-.853-1.383-1.614-2.268-2.225-.063-.044-.115-.104-.173-.158M17.893 17.724c-1.212.421-2.445.556-3.71.274-.123-.028-.283-.054-.277-.227.005-.157.14-.174.258-.15 1.237.26 2.482.17 3.73.103M19.779 12.67c-.56 1.194-1.436 2.092-2.547 2.769-.085.052-.183.098-.257-.012-.051-.077-.021-.164.03-.229a.694.694 0 0 1 .175-.168 9.257 9.257 0 0 0 2.599-2.36"/>
    </g>
</svg>
