<svg xmlns="http://www.w3.org/2000/svg" width="28" height="28" viewBox="0 0 28 28">
    <g>
        <path fill="#2775B2" d="M13.849 7.892c-3.91 0-7.078 3.126-7.078 6.982 0 3.855 3.169 6.981 7.078 6.981 3.91 0 7.078-3.126 7.078-6.981 0-3.856-3.169-6.982-7.078-6.982m0 1.228c3.216 0 5.833 2.581 5.833 5.754 0 3.172-2.617 5.753-5.833 5.753-3.217 0-5.834-2.58-5.834-5.753S10.632 9.12 13.85 9.12"/>
        <path fill="#2775B2" d="M12.613 5.464c-.062 0-.113.072-.113.16l.113 8.246c0 .088 2.264 1.914 2.264 1.914.063 0 .114-.072.114-.16v-10c0-.088-.051-.16-.114-.16h-2.264z"/>
        <path fill="#2775B2" d="M21.914 20.963L8.559 5.444c4.34-2.55 10.05-1.714 13.416 2.198a10.12 10.12 0 0 1-.061 13.32m-15.992-.071a10.12 10.12 0 0 1 .061-13.32l13.354 15.518c-4.34 2.55-10.049 1.714-13.415-2.198M24.614 5.465C19.65-.305 10.851-1.04 4.96 3.82-.93 8.682-1.682 17.3 3.283 23.068c4.964 5.77 13.763 6.505 19.654 1.644 5.89-4.862 6.641-13.479 1.677-19.247"/>
    </g>
</svg>
