<svg xmlns="http://www.w3.org/2000/svg" xmlns:xlink="http://www.w3.org/1999/xlink" width="84" height="45" viewBox="0 0 84 45">
    <defs>
        <rect id="b" width="70" height="31" rx="15.5"/>
        <filter id="a" width="134.3%" height="177.4%" x="-17.1%" y="-29%" filterUnits="objectBoundingBox">
            <feOffset dy="3" in="SourceAlpha" result="shadowOffsetOuter1"/>
            <feGaussianBlur in="shadowOffsetOuter1" result="shadowBlurOuter1" stdDeviation="3.5"/>
            <feColorMatrix in="shadowBlurOuter1" values="0 0 0 0 0 0 0 0 0 0 0 0 0 0 0 0 0 0 0.227411685 0"/>
        </filter>
    </defs>
    <g>
        <g transform="translate(7 4)">
            <use fill="#000" filter="url(#a)" xlink:href="#b"/>
            <use fill="#D55347" xlink:href="#b"/>
        </g>
        <path fill="#FFF" d="M26.332 16.616c-.372 1.068-.72 2.04-1.032 2.916-.54 1.488-1.104 3.108-1.236 3.468-.264.744-.6 1.788-1.62 2.268-.432.18-.936.264-1.56.264-.288 0-.564-.012-.816-.024v-1.644c.18.012.36.024.552.024h.132c.324 0 .552-.06.696-.108.276-.072.42-.336.42-.78l-2.652-6.384h2.196l1.488 3.948 1.272-3.948h2.16zm5.904 1.428c.108.324.156.708.156 1.164v1.176c0 1.236-.444 2.04-1.32 2.424-.432.18-.948.276-1.56.276-1.308 0-2.172-.432-2.568-1.284-.18-.348-.276-.78-.276-1.308v-1.404c0-1.248.54-2.052 1.62-2.4.372-.108.732-.18 1.152-.18h.192c1.38 0 2.22.528 2.604 1.536zm-1.812 1.092c0-.504-.144-.804-.432-.888-.108-.06-.24-.072-.384-.072h-.156c-.348 0-.6.144-.744.432-.036.108-.06.228-.06.408v1.608c0 .552.288.828.864.828h.048c.456 0 .744-.204.852-.6 0-.108.012-.228.012-.408v-1.308zm2.82 3.048c-.18-.372-.24-.876-.24-1.884v-3.696h2.004v4.056c0 .396.192.648.576.732.12.012.252.024.384.012.228-.012.54-.072.864-.276l.012-4.524h1.992V23h-1.644l-.072-.108c-.036-.084-.072-.156-.108-.288-.156.06-.804.444-1.776.48-.792.036-1.476-.072-1.992-.9zm10.86-.6v1.44h-.468c-1.404 0-2.952.12-2.952-2.244 0-.036-.012-.684-.012-1.308v-1.224h-.96v-1.644h.96v-1.596l1.968-.336v1.932h1.5l-.204 1.644H42.64v1.824-1.824 2.268c0 .42 0 .744.432.876.348.156.972.192 1.032.192zm1.14.6c-.18-.372-.24-.876-.24-1.884v-3.696h2.004v4.056c0 .396.192.648.576.732.12.012.252.024.384.012.228-.012.54-.072.864-.276l.012-4.524h1.992V23h-1.644l-.072-.108c-.036-.084-.072-.156-.108-.288-.156.06-.804.444-1.776.48-.792.036-1.476-.072-1.992-.9zm11.916-4.788c.156.252.228.876.228 1.86v.636c0 1.032-.072 1.68-.228 1.932-.048.156-.192.36-.42.588-.48.444-1.296.672-2.46.672-.804 0-1.668-.084-2.616-.264v-8.808l1.968-.348v3.084c.54-.18 1.092-.24 1.416-.24 1.14 0 1.836.3 2.112.888zm-1.752 1.5c0-.396-.18-.636-.552-.72h-.3c-.312 0-.624.084-.924.264v2.988l.576.036h.156c.564 0 .9-.18.996-.552.036-.108.048-.228.048-.384v-1.632zm8.148-1.104c.156.348.228.828.228 1.44v1.14h-3.588v.192c0 .432.132.696.396.792.18.048.384.084.708.084h.156c.684 0 1.404-.072 2.16-.228h.012v1.608c0 .024-.336.084-1.008.192-.42.048-.912.072-1.452.072-1.404 0-2.316-.48-2.724-1.428a3.106 3.106 0 0 1-.228-1.176v-1.536c0-1.128.468-1.872 1.416-2.244a4.247 4.247 0 0 1 1.344-.204c1.32 0 2.184.432 2.58 1.296zm-1.752 1.14c0-.444-.096-.708-.288-.792a.94.94 0 0 0-.528-.144c-.564 0-.792.252-.792.744v.3h1.608v-.108z"/>
    </g>
</svg>
