<svg xmlns="http://www.w3.org/2000/svg" width="28" height="29" viewBox="0 0 28 29">
    <g fill="#467C45" fill-rule="evenodd">
        <path d="M14.053 2.849c.32-.956.587-1.912.96-2.849.57 1.346.943 2.79 1.512 4.117 1.404.605 2.933.859 4.355 1.444a328.623 328.623 0 0 1-9.28 4.879c.764-2.556 1.636-5.054 2.453-7.591zM8.616 5.838c1.394-.76 2.75-1.597 4.144-2.358-1.115 3.5-2.379 6.94-3.512 10.44-1.245-2.396-2.323-4.887-3.493-7.321C5.383 5.78 4.955 5 4.64 4.165c1.356.475 2.62 1.255 3.976 1.673M15.08 9.307a933.105 933.105 0 0 1 9.776-4.667c-.532 1.344-1.14 2.632-1.728 3.957.76 1.4 1.69 2.726 2.392 4.163a426.991 426.991 0 0 1-10.44-3.453M4.922 7.203c.933 1.917 1.727 3.93 2.59 5.883.588 1.348 1.21 2.677 1.745 4.062A349.996 349.996 0 0 1 0 13.485c1.209-.607 2.487-1.025 3.713-1.594.397-1.575.812-3.132 1.209-4.688M17.4 11.6c2.64.887 5.259 1.895 7.898 2.822.834.322 1.727.564 2.542.987-1.378.565-2.775 1.11-4.133 1.673-.505 1.632-.854 3.326-1.378 4.958-1.067-2.055-1.999-4.192-3.008-6.288-.64-1.37-1.339-2.741-1.921-4.152M17.445 18.178c.354-1.033.652-2.085 1.062-3.098.484.86.875 1.778 1.322 2.658 1.099 2.39 2.29 4.723 3.371 7.113-1.323-.554-2.626-1.166-3.967-1.74-1.397.765-2.72 1.683-4.153 2.409.726-2.466 1.602-4.895 2.365-7.342M2.48 16.24c3.073.938 6.07 2.063 9.104 3.057.458.15.916.319 1.336.525-3.283 1.481-6.508 3.112-9.83 4.538.535-1.313 1.203-2.57 1.718-3.9-.649-1.464-1.622-2.776-2.328-4.22M9.267 22.242c2.324-1.228 4.63-2.513 6.973-3.682-.626 2.279-1.43 4.52-2.128 6.798-.411 1.207-.733 2.454-1.198 3.642-.572-1.325-.983-2.727-1.52-4.071-1.448-.584-2.968-.916-4.434-1.363.697-.565 1.555-.877 2.307-1.324"/>
    </g>
</svg>
